<svg width="70" height="68" viewBox="0 0 70 68" xmlns="http://www.w3.org/2000/svg" xmlns:xlink="http://www.w3.org/1999/xlink"><title>Page 1</title><defs><path id="path-1" d="M0 .065h69.05V80H0V.065z"/><path id="path-3" d="M0 .065h69.05V80H0V.065z"/></defs><g id="Page-1" fill="none" fill-rule="evenodd"><g id="Desktop-HD"><g id="Page-1"><g id="Group-3"><mask id="mask-2" fill="#fff"><use xlink:href="#path-1"/></mask><path d="M.497.675v6.022H66.26V.56H.535C.49.568.493.62.497.676zM66.72.065c-.01.033.013.036.036.04.025.148.178.212.268.304a105.07 105.07 0 0 0 1.72 1.713c.092.09.156.243.305.267v7.012H2.292A75.297 75.297 0 0 0 .038 7.154H0V.064h66.72z" id="Fill-1" fill="#FEFEFE" mask="url(#mask-2)"/></g><g id="Group-6"><mask id="mask-4" fill="#fff"><use xlink:href="#path-3"/></mask><path d="M9.4 22.283v3.697h17.12v-3.81H9.437c-.044.006-.04.06-.038.113zM39.74 46.33c-2.126-.088-4.42-.012-6.61-.037.025-4.56-.05-9.223.038-13.72h6.573V26.4h-6.61v-6.556h-6.152V26.4h-6.573v6.173c2.18.026 4.458-.05 6.573.038v19.82H39.74v-6.1zm.497-33.002v25.8h6.114c.003-2.19 0-4.565 0-6.63h13.3V26.4c-4.42-.026-8.943.05-13.3-.04v-5.295-1.754h19.91v-6.097H40.276c-.045.007-.042.06-.04.115zm-39.74 0c-.037 8.543.023 17.23 0 25.876H6.61v-6.63H19.91v-6.098H6.61c.026-2.338-.05-4.777.04-7.05h19.87v-6.213H.534c-.045.007-.042.06-.038.115zm66.222-.61c.797.74 1.53 1.547 2.33 2.286v7.09H49.14v3.81h10.89c.197.008.242.167.345.267.548.492 1.034 1.032 1.567 1.563.17.17.39.304.497.534v7.012h-13.3v6.63H42.15c-.196-.007-.24-.166-.344-.267-.634-.574-1.2-1.216-1.834-1.79-.05-.142-.24-.142-.23-.344v-4.193h-3.82v10.48c1.324.09 2.814.013 4.203.038.15.025.213.177.305.268.695.676 1.378 1.33 2.026 2.02v7.087H28.812a77.175 77.175 0 0 1-2.293-2.286v-17.53c-5.618-.09-11.4-.013-17.082-.04-.09 2.136-.012 4.435-.038 6.632H2.293A77.175 77.175 0 0 0 0 39.7V12.794h26.9c.203-.01.204.18.345.23a49.843 49.843 0 0 0 1.834 1.828c.054.15.26.146.23.38v4.155h4.202c.202-.01.202.18.344.23a48.97 48.97 0 0 0 1.834 1.828c.055.15.262.146.23.38v4.117h3.82c.026-4.395-.05-8.892.04-13.224h26.94z" id="Fill-4" fill="#FEFEFE" mask="url(#mask-4)"/></g><path d="M.497 58.745v6.025H66.11v-6.138H.535c-.045.007-.042.06-.038.113m66.378-.45c.002.02.005.043.038.036.697.72 1.41 1.423 2.14 2.11v6.928H2.255A74.192 74.192 0 0 0 0 65.148v-7.043" id="Fill-7" fill="#FEFEFE"/></g></g></g></svg>