<?xml version="1.0" encoding="UTF-8" standalone="no"?>
<svg width="70px" height="68px" viewBox="0 0 70 68" version="1.1" xmlns="http://www.w3.org/2000/svg" xmlns:xlink="http://www.w3.org/1999/xlink" xmlns:sketch="http://www.bohemiancoding.com/sketch/ns">
    <!-- Generator: Sketch 3.5.2 (25235) - http://www.bohemiancoding.com/sketch -->
    <title>Page 1</title>
    <desc>Created with Sketch.</desc>
    <defs>
        <path id="path-1" d="M0,0.0654716981 L69.0492262,0.0654716981 L69.0492262,80 L0,80 L0,0.0654716981 Z"></path>
        <path id="path-3" d="M0,0.0654716981 L69.0492262,0.0654716981 L69.0492262,80 L0,80 L0,0.0654716981 Z"></path>
    </defs>
    <g id="Page-1" stroke="none" stroke-width="1" fill="none" fill-rule="evenodd" sketch:type="MSPage">
        <g id="Desktop-HD" sketch:type="MSArtboardGroup" transform="translate(-43.000000, -18.000000)">
            <g id="Page-1" sketch:type="MSLayerGroup" transform="translate(43.000000, 18.000000)">
                <g id="Group-3">
                    <mask id="mask-2" sketch:name="Clip 2" fill="white">
                        <use xlink:href="#path-1"></use>
                    </mask>
                    <g id="Clip-2"></g>
                    <path d="M0.496800577,0.675207547 L0.496800577,6.69671698 L66.2600675,6.69671698 L66.2600675,0.560867925 L0.535016006,0.560867925 C0.490368277,0.567471698 0.493395242,0.621056604 0.496800577,0.675207547 L0.496800577,0.675207547 Z M66.7186526,0.0653962264 C66.7114636,0.0976603774 66.7332199,0.101245283 66.7564897,0.103509434 C66.781273,0.252943396 66.9341347,0.316528302 67.0241869,0.408603774 C67.5567435,0.952377358 68.1676228,1.56275472 68.7435028,2.12332075 C68.8362036,2.21332075 68.8995807,2.36558491 69.0492262,2.39011321 L69.0492262,9.40237736 L2.29273655,9.40237736 C1.55699495,8.63690566 0.805740159,7.88766038 0.038215429,7.15388679 L0,7.15388679 L0,0.0653962264 L66.7186526,0.0653962264 Z" id="Fill-1" fill="#FEFEFE" sketch:type="MSShapeGroup" mask="url(#mask-2)"></path>
                </g>
                <g id="Group-6">
                    <mask id="mask-4" sketch:name="Clip 5" fill="white">
                        <use xlink:href="#path-3"></use>
                    </mask>
                    <g id="Clip-5"></g>
                    <path d="M9.4001442,22.2834906 L9.4001442,25.9800943 L26.5193321,25.9800943 L26.5193321,22.1691509 L9.43835963,22.1691509 C9.3937119,22.175566 9.39692805,22.2293396 9.4001442,22.2834906 L9.4001442,22.2834906 Z M39.7409246,46.3306604 C37.613536,46.2417925 35.3207994,46.3182075 33.1300337,46.2927358 C33.1551954,41.7325472 33.0791429,37.0700943 33.16806,32.5733019 L39.7409246,32.5733019 L39.7409246,26.3995283 L33.1300337,26.3995283 L33.1300337,19.844434 L26.977728,19.844434 L26.977728,26.3995283 L20.4052418,26.3995283 L20.4052418,32.5733019 C22.5835213,32.5985849 24.863204,32.5223585 26.977728,32.6114151 L26.977728,52.4285849 L39.7409246,52.4285849 L39.7409246,46.3306604 Z M40.2373468,13.3278302 L40.2373468,39.1282075 L46.3512479,39.1282075 C46.3525722,36.9372642 46.3501128,34.5631132 46.3512479,32.4970755 L59.649082,32.4970755 L59.649082,26.3995283 C55.2295244,26.3740566 50.7074284,26.4500943 46.3512479,26.3612264 C46.349356,25.2806604 46.3512479,24.0617925 46.3512479,22.8551887 L46.3512479,21.0640566 C46.3512479,20.4082075 46.349356,19.8351887 46.3512479,19.3110377 L66.2601621,19.3110377 L66.2601621,13.2133019 L40.2757514,13.2133019 C40.2311037,13.2199057 40.2339415,13.2736792 40.2373468,13.3278302 L40.2373468,13.3278302 Z M0.496895169,13.3278302 C0.459625667,21.8710377 0.52016496,30.5574528 0.496895169,39.2042453 L6.61060707,39.2042453 L6.61060707,32.5733019 L19.9084412,32.5733019 L19.9084412,26.475566 L6.61060707,26.475566 C6.63614708,24.1382075 6.55971622,21.6993396 6.64901168,19.4253774 L26.5193321,19.4253774 L26.5193321,13.2133019 L0.534921413,13.2133019 C0.49046287,13.2199057 0.493489834,13.2736792 0.496895169,13.3278302 L0.496895169,13.3278302 Z M66.7187472,12.7182075 C67.5174875,13.4578302 68.250013,14.2646226 69.0493208,15.004434 L69.0493208,22.0931132 L49.1411634,22.0931132 L49.1411634,25.9040566 L60.0312363,25.9040566 C60.2274215,25.9116038 60.2720692,26.0706604 60.3753644,26.1708491 C60.9234342,26.6616038 61.4090728,27.2019811 61.9418186,27.7333019 C62.111707,27.9023585 62.3330538,28.0365094 62.4389975,28.2666981 L62.4389975,35.2793396 L49.1411634,35.2793396 L49.1411634,41.9099057 L42.1479291,41.9099057 C41.9519331,41.9025472 41.9074745,41.7436792 41.8039902,41.6433019 C41.1704087,41.0687736 40.6037987,40.4272642 39.9702172,39.8525472 C39.9204614,39.7108491 39.7297627,39.7108491 39.7409246,39.5091509 L39.7409246,35.3170755 L35.9197601,35.3170755 L35.9197601,45.7970755 C37.2440571,45.8863208 38.7344588,45.8099057 40.1230789,45.8353774 C40.2727244,45.8600943 40.3359123,46.0123585 40.4284239,46.1025472 C41.1234907,46.7787736 41.8056929,47.4329245 42.4536525,48.1223585 L42.4536525,55.2104717 L28.8118795,55.2104717 C28.0316793,54.4642453 27.2675599,53.7021698 26.5193321,52.9238679 L26.5193321,35.3933019 C20.9020424,35.3048113 15.1192156,35.3808491 9.43835963,35.3551887 C9.34944254,37.489717 9.42568421,39.7885849 9.4001442,41.9863208 L2.29283115,41.9863208 C1.54441413,41.2083962 0.780294737,40.4459434 -9.4592646e-05,39.7000943 L-9.4592646e-05,12.7942453 L26.9014864,12.7942453 C27.1033471,12.7833019 27.1035363,12.9736792 27.245236,13.0227358 C27.8407913,13.6485849 28.4522382,14.2582075 29.0793875,14.8521698 C29.1342512,15.0008491 29.3408415,14.9980189 29.30868,15.2331132 L29.30868,19.3870755 L33.5119988,19.3870755 C33.7142379,19.3763208 33.7142379,19.5668868 33.8561269,19.6159434 C34.4513038,20.2416038 35.0625615,20.8514151 35.6904675,21.4451887 C35.7449528,21.5940566 35.9517324,21.5910377 35.9197601,21.8263208 L35.9197601,25.9421698 L39.7409246,25.9421698 C39.7660862,21.5466981 39.6898446,17.049717 39.7787616,12.7182075 L66.7187472,12.7182075 Z" id="Fill-4" fill="#FEFEFE" sketch:type="MSShapeGroup" mask="url(#mask-4)"></path>
                </g>
                <path d="M0.496825078,58.7451045 L0.496825078,64.7699045 L66.110466,64.7699045 L66.110466,58.632312 L0.535042391,58.632312 C0.490392461,58.6388372 0.493419575,58.691598 0.496825078,58.7451045 M66.8748123,58.2935615 C66.8767042,58.31612 66.8802989,58.3383056 66.9126512,58.3306618 C67.6102118,59.049924 68.3236647,59.7525937 69.0526316,60.4397892 L69.0526316,67.3684211 L2.25463231,67.3684211 C1.51885443,66.6116856 0.767373387,65.8715428 0,65.1468739 L0,58.1052632" id="Fill-7" fill="#FEFEFE" sketch:type="MSShapeGroup"></path>
            </g>
        </g>
    </g>
</svg>